<svg width="100" height="100" viewBox="0 0 100 100" xmlns="http://www.w3.org/2000/svg">
  <path d="M15 50 Q15 82 50 88 Q85 82 85 50 Z" fill="#d97a52" stroke="#b85c3a" stroke-width="2"/>
  <ellipse cx="50" cy="50" rx="36" ry="9" fill="#f2a97a" stroke="#b85c3a" stroke-width="2"/>
  <path d="M22 48 Q28 30 50 28 Q72 30 78 48 Q65 42 50 42 Q35 42 22 48 Z" fill="#fff9ec" stroke="#e8dcc0" stroke-width="1.5"/>
  <ellipse cx="38" cy="35" rx="4" ry="2.5" fill="#ffffff"/>
  <ellipse cx="55" cy="32" rx="4" ry="2.5" fill="#ffffff"/>
  <ellipse cx="65" cy="38" rx="4" ry="2.5" fill="#ffffff"/>
  <circle cx="42" cy="46" r="2.2" fill="#3a2a1a"/>
  <circle cx="58" cy="46" r="2.2" fill="#3a2a1a"/>
  <path d="M46 51 Q50 54 54 51" stroke="#3a2a1a" stroke-width="1.8" fill="none" stroke-linecap="round"/>
  <circle cx="36" cy="49" r="2.5" fill="#f4a3a3" opacity="0.7"/>
  <circle cx="64" cy="49" r="2.5" fill="#f4a3a3" opacity="0.7"/>
</svg>
